{"title":"I Spy (2002) - DVDRip - MP3 - ENG","uid":4483661,"size":734465458,"categoryP":"video","categoryS":"movies","magnet":"?xt=urn:btih:2c740730b0e50efb13665c99f4868173353a53c3&amp;dn=I+Spy+%282002%29+-+DVDRip+-+MP3+-+ENG&amp;tr=udp%3A%2F%2Ftracker.openbittorrent.com%3A80&amp;tr=udp%3A%2F%2Fopen.demonii.com%3A1337&amp;tr=udp%3A%2F%2Ftracker.coppersurfer.tk%3A6969&amp;tr=udp%3A%2F%2Fexodus.desync.com%3A6969","seeders":4,"leechers":1,"uploader":"206andy206","files":-1,"time":1225669959,"description":"IMDb: http://www.imdb.com/title/tt0297181/\nUser Rating: 5.3/10   14,127 votes\nRelease Date: 24 January 2003 (UK) \nGenre: Action | Adventure | Comedy | Thriller\nTagline: Attitude meets espionage \n\nPlot: Based on the 1960&amp;#039;s television series I Spy. A professional athlete (boxer - Eddie Murphy) has to help a U.S. government agent recover a missing jet.\n\nCast: (Cast overview, first billed only)\n\nEddie Murphy\t        ... \tKelly\nOwen Wilson\t        ... \tAlex\nFamke Janssen    \t... \tRachel\nMalcolm McDowell\t... \tGundars\nGary Cole\t        ... \tCarlos\nPhill Lewis       \t... \tJerry\nViv Leacock       \t... \tT.J.\nKeith Dallas      \t... \tLunchbox\nTate Taylor     \t... \tLieutenant Percy\nLynda Boyd      \t... \tEdna\nBill Mondy      \t... \tMcIntyre\nLarry Merchant      \t... \tVegas Commentator\nSugar Ray Leonard\t... \tVegas Commentator\nJimmy Lennon Jr.\t... \tVegas Ring Announcer\nJoe Cortez      \t... \tVegas Referee\n\n\n\n\nGeneral\nComplete name                    : I Spy (2002) - DVDRip - MP3 - ENG.avi\nFormat                           : AVI\nSource                           : PAL DVD\nFile size                        : 700 MiB\nDuration                         : 1h 32mn\nOveral bit rate                  : 1058 Kbps\nLanguage                         : English\nSubtitles                        : Hardcoded when needed\n\nVideo\nFormat                           : MPEG-4 Visual\nCodec ID                         : XviD\nDuration                         : 1h 32mn\nBit rate                         : 922 Kbps\nWidth                            : 608 pixels\nHeight                           : 336 pixels\nDisplay aspect ratio             : 16/9\nFrame rate                       : 25.000 fps\nResolution                       : 8 bits\nColorimetry                      : 4:2:0\nScan type                        : Progressive\nBits/(Pixel*Frame)               : 0.181\nStream size                      : 611 MiB (87%)\nWriting library                  : XviD 1.1.2 (UTC 2006-11-01)\n\nAudio\nFormat                           : MPEG Audio\nFormat version                   : Version 1\nFormat profile                   : Layer 3\nCodec ID                         : 55\nCodec ID/Hint                    : MP3\nDuration                         : 1h 32mn\nBit rate mode                    : Constant\nBit rate                         : 128 Kbps\nChannel(s)                       : 2 channels\nSampling rate                    : 48.0 KHz\nResolution                       : 16 bits\nStream size                      : 84.8 MiB (12%)\nWriting library                  : LAME3.97 \nEncoding settings                : CBR\n\n\n\nTrackers:\n &lt;a href=&quot;\nhttp://tpb.tracker.thepiratebay.se:80/announce&quot; rel=&quot;nofollow&quot; target=&quot;_NEW&quot;&gt;\nhttp://tpb.tracker.thepiratebay.se:80/announce&lt;/a&gt; &lt;a href=&quot;\nhttp://bandit.ukb-kvcd.com:5600/announce&quot; rel=&quot;nofollow&quot; target=&quot;_NEW&quot;&gt;\nhttp://bandit.ukb-kvcd.com:5600/announce&lt;/a&gt; &lt;a href=&quot;\nhttp://www.torrent-downloads.to:5869/announce&quot; rel=&quot;nofollow&quot; target=&quot;_NEW&quot;&gt;\nhttp://www.torrent-downloads.to:5869/announce&lt;/a&gt; &lt;a href=&quot;\nhttp://vip.tracker.thepiratebay.se/announce&quot; rel=&quot;nofollow&quot; target=&quot;_NEW&quot;&gt;\nhttp://vip.tracker.thepiratebay.se/announce&lt;/a&gt;\n\n\n\nInfo Hash: 2C740730B0E50EFB13665C99F4868173353A53C3\n\n\n\n\nEnjoy","torrent":{"xt":"urn:btih:2c740730b0e50efb13665c99f4868173353a53c3","amp;dn":"I+Spy+%282002%29+-+DVDRip+-+MP3+-+ENG","amp;tr":["udp%3A%2F%2Ftracker.openbittorrent.com%3A80","udp%3A%2F%2Fopen.demonii.com%3A1337","udp%3A%2F%2Ftracker.coppersurfer.tk%3A6969","udp%3A%2F%2Fexodus.desync.com%3A6969"],"infoHash":"2c740730b0e50efb13665c99f4868173353a53c3","infoHashBuffer":{"type":"Buffer","data":[44,116,7,48,176,229,14,251,19,102,92,153,244,134,129,115,53,58,83,195]},"announce":[],"urlList":[]}}